<svg id="visual" viewBox="0 0 2400 3900" width="2400" height="3900" xmlns="http://www.w3.org/2000/svg" xmlns:xlink="http://www.w3.org/1999/xlink" version="1.1"><rect x="0" y="0" width="2400" height="3900" fill="#bcbcbc"></rect><path d="M801 0L935 557L879 1114L703 1671L888 2229L798 2786L867 3343L733 3900L0 3900L0 3343L0 2786L0 2229L0 1671L0 1114L0 557L0 0Z" fill="#a8a89e"></path><path d="M572 0L736 557L728 1114L609 1671L555 2229L542 2786L639 3343L776 3900L0 3900L0 3343L0 2786L0 2229L0 1671L0 1114L0 557L0 0Z" fill="#bdbdb5"></path><path d="M577 0L638 557L363 1114L403 1671L464 2229L470 2786L541 3343L537 3900L0 3900L0 3343L0 2786L0 2229L0 1671L0 1114L0 557L0 0Z" fill="#d3d3cd"></path><path d="M297 0L259 557L263 1114L333 1671L250 2229L260 2786L266 3343L242 3900L0 3900L0 3343L0 2786L0 2229L0 1671L0 1114L0 557L0 0Z" fill="#e9e9e6"></path><path d="M161 0L256 557L287 1114L123 1671L193 2229L288 2786L181 3343L150 3900L0 3900L0 3343L0 2786L0 2229L0 1671L0 1114L0 557L0 0Z" fill="#ffffff"></path></svg>